PathFileType	4	(X/Y/Z)	..\data\2015026\dynamic\2015026_C4_04.trc
DataRate	CameraRate	NumFrames	NumMarkers	Units	OrigDataRate	OrigDataStartFrame	OrigNumFrames
100.000000	100.000000	4	48	mm	100.000000	140	160
Frame#	Time	L_IAS			L_IPS			R_IPS			R_IAS			L_FTC			L_FLE			L_FAX			L_TTC			L_FAL			L_FCC			L_FM1			L_FM2			L_FM5			R_FTC			R_FLE			R_FAX			R_TTC			R_FAL			R_FCC			R_FM1			R_FM2			R_FM5			CV7			TV10			SXS			SJN			L_SIA			L_SRS			L_SAA			L_SAE			L_HLE			L_HME			L_UOA			L_RSP			L_UHE			L_HM2			L_HM5			R_SIA			R_SRS			R_SAA			R_SAE			R_HLE			R_HME			R_UOA			R_RSP			R_UHE			R_HM2			R_HM5			
		X1	Y1	Z1	X2	Y2	Z2	X3	Y3	Z3	X4	Y4	Z4	X5	Y5	Z5	X6	Y6	Z6	X7	Y7	Z7	X8	Y8	Z8	X9	Y9	Z9	X10	Y10	Z10	X11	Y11	Z11	X12	Y12	Z12	X13	Y13	Z13	X14	Y14	Z14	X15	Y15	Z15	X16	Y16	Z16	X17	Y17	Z17	X18	Y18	Z18	X19	Y19	Z19	X20	Y20	Z20	X21	Y21	Z21	X22	Y22	Z22	X23	Y23	Z23	X24	Y24	Z24	X25	Y25	Z25	X26	Y26	Z26	X27	Y27	Z27	X28	Y28	Z28	X29	Y29	Z29	X30	Y30	Z30	X31	Y31	Z31	X32	Y32	Z32	X33	Y33	Z33	X34	Y34	Z34	X35	Y35	Z35	X36	Y36	Z36	X37	Y37	Z37	X38	Y38	Z38	X39	Y39	Z39	X40	Y40	Z40	X41	Y41	Z41	X42	Y42	Z42	X43	Y43	Z43	X44	Y44	Z44	X45	Y45	Z45	X46	Y46	Z46	X47	Y47	Z47	X48	Y48	Z48	

141	1.4	1571.607299804688	952.8254394531252	-332.9416198730469	1379.638916015625	948.0778808593752	-272.7173767089844	1384.544555664063	952.1013183593752	-160.0556335449219	1575.45751953125	948.4438476562502	-110.2468566894532	1494.081665039063	866.149597167969	-395.5498657226564	1461.453125	452.0227966308595	-307.5263366699219	1430.482543945313	402.2136535644532	-310.3903503417969	1488.35400390625	390.8943786621095	-252.8922729492188	1386.653564453125	63.5441360473633	-272.1101684570313	1336.543090820313	19.55055809020996	-238.0006408691407	1524.329956054688	17.87365150451661	-185.8856964111328	1536.518676757813	31.55526351928712	-241.0333099365235	1493.526977539063	15.03344154357911	-298.8067016601563	1495.577026367188	860.4168090820315	-44.54530715942384	1676.175415039063	492.2505187988282	-86.51284027099611	1645.149169921875	437.9508056640626	-89.23545074462892	1710.598266601563	418.1329956054689	-121.5079803466797	1564.929565429688	98.24821472167972	-106.6424255371094	1526.471923828125	63.39097595214845	-159.3811950683594	1718.812133789063	37.60668563842774	-147.0015258789063	1704.602783203125	45.70515060424805	-97.97480010986331	1657.395629882813	30.96651649475098	-63.87447357177736	1416.789306640625	1436.267822265625	-222.7888336181641	1347.074096679688	1196.754760742188	-236.637191772461	1566.877075195313	1134.412719726563	-230.8874816894532	1537.672119140625	1350.151245117188	-229.2036132812501	1346.239379882813	1235.187744140625	-315.7489624023438	1372.723876953125	1366.183349609375	-312.2526245117188	1419.43310546875	1377.552001953125	-392.4126281738282	1461.000244140625	1377.37255859375	-409.6081542968751	1514.631713867188	1070.896118164063	-478.1613769531251	1474.500244140625	1050.52587890625	-408.7949829101564	1481.362548828125	1044.566528320313	-456.9931945800782	1659.735107421875	874.1431274414065	-422.0774536132814	1602.177856445313	854.7641601562502	-470.2346191406251	1707.09912109375	805.3739013671877	-427.7371826171876	1619.44384765625	782.0142211914065	-470.169647216797	1339.974609375	1233.237548828125	-154.4469604492188	1368.709228515625	1364.464965820313	-181.3241577148438	1409.151245117188	1377.15087890625	-73.82359313964845	1462.591064453125	1371.835571289063	-48.10490798950197	1401.0947265625	1061.849975585938	-6.952995777130129	1387.275756835938	1049.54736328125	-83.7050247192383	1372.597778320313	1044.039428710938	-39.93988037109376	1472.156005859375	819.675476074219	6.322886466979982	1393.761352539063	818.5112304687502	0.8771694898605349	1477.452880859375	732.5959472656251	16.16134834289551	1379.109985351563	748.2806396484376	-0.08360917121171953	
142	1.41	1583.198608398438	950.9078369140627	-333.3666076660157	1391.222045898438	946.585876464844	-271.8463439941407	1396.990844726563	950.4617309570315	-159.2062377929688	1588.052490234375	946.8628540039065	-110.8700332641602	1503.914672851563	864.6809692382815	-395.227264404297	1466.62353515625	451.2305297851564	-307.5921936035157	1435.087158203125	401.8287048339845	-310.3905029296876	1492.801391601563	389.6701965332032	-252.9827880859376	1387.067626953125	63.6123390197754	-271.8802795410157	1336.4345703125	19.99154853820801	-237.9013977050782	1524.419189453125	17.82027435302735	-185.8451843261719	1536.662353515625	31.44214057922364	-241.0841979980469	1493.602905273438	14.99212169647217	-298.8266601562501	1508.744140625	858.809265136719	-44.41716384887696	1689.142944335938	490.6157531738282	-88.64498138427736	1660.422729492188	434.561981201172	-90.73729705810548	1726.546630859375	417.9600219726564	-123.9092178344727	1602.46630859375	90.5797576904297	-106.4190292358399	1566.329711914063	53.53955078125001	-158.9376220703125	1759.739624023438	39.59206771850587	-148.3128662109375	1745.210571289063	46.47506332397462	-99.11208343505862	1699.115356445313	28.94634437561036	-64.7873001098633	1428.570678710938	1434.578857421875	-223.0975799560547	1358.96923828125	1195.08203125	-236.6230621337891	1578.756469726563	1132.746337890625	-231.1587677001954	1549.51611328125	1348.484741210938	-229.509262084961	1357.988403320313	1233.468139648438	-315.8362731933594	1384.512329101563	1364.525268554688	-312.5522766113282	1431.198486328125	1375.736450195313	-392.7759094238282	1472.724731445313	1375.525146484375	-409.9560852050782	1528.900634765625	1069.710327148438	-478.9610595703126	1489.032592773438	1048.752563476563	-409.8349914550782	1495.910766601563	1042.814819335938	-457.9931640625001	1677.597290039063	876.0382080078127	-421.5880737304689	1620.642333984375	855.137390136719	-469.6933593750001	1726.564575195313	808.3294067382815	-426.6447753906251	1639.453735351563	782.7644653320315	-469.0370483398439	1351.813842773438	1231.582153320313	-154.6830444335938	1380.534057617188	1362.804443359375	-181.6432189941407	1421.197143554688	1375.24853515625	-74.0279998779297	1474.379760742188	1369.963623046875	-48.37779998779298	1410.999633789063	1060.447998046875	-7.678081512451174	1397.329833984375	1048.301147460938	-84.44599914550783	1382.59619140625	1042.97509765625	-40.76848983764649	1479.314453125	817.6376953125002	6.10512685775757	1400.915161132813	817.3753051757815	0.2471219003200532	1483.584228515625	730.5428466796876	16.05850791931153	1385.401611328125	747.3915405273439	-0.7366353869438172	
143	1.42	1594.808715820313	948.8386840820315	-333.7696533203126	1402.901977539063	944.9038696289065	-270.9287109375001	1409.5244140625	948.613464355469	-158.3142700195313	1600.726806640625	945.1245727539065	-111.4524917602539	1513.938598632813	863.070251464844	-394.857391357422	1472.368286132813	450.3103637695314	-307.6157531738282	1440.2294921875	401.334197998047	-310.3419189453126	1497.750122070313	388.2931213378907	-253.0706787109376	1387.535888671875	63.74320220947267	-271.6639709472657	1336.447875976563	20.47186660766602	-237.7925262451172	1524.501586914063	17.76220703125	-185.7899932861328	1536.807495117188	31.32903671264649	-241.1162414550782	1493.694580078125	14.96217060089112	-298.8258361816407	1521.915649414063	856.939392089844	-44.28815460205079	1701.488403320313	488.5668334960939	-90.80917358398439	1675.185180664063	430.9023437500001	-92.29107666015626	1741.819946289063	417.5319824218751	-126.3641967773438	1639.996826171875	84.07875823974611	-106.4479751586914	1606.33203125	44.96012496948243	-158.7548370361328	1800.0966796875	42.77075576782227	-149.8746643066407	1785.365600585938	48.51627349853517	-100.4804611206055	1740.522583007813	28.3181495666504	-65.94373321533205	1440.426513671875	1432.697509765625	-223.3848724365235	1370.891845703125	1193.228393554688	-236.5589904785157	1590.692138671875	1130.866943359375	-231.3370361328126	1561.422241210938	1346.623657226563	-229.7987518310547	1369.764038085938	1231.575927734375	-315.8931274414063	1396.366455078125	1362.693237304688	-312.8269958496094	1443.065185546875	1373.703247070313	-393.1280517578126	1484.544921875	1373.436401367188	-410.2738037109376	1543.084838867188	1068.300903320313	-479.7008666992189	1503.410278320313	1046.760864257813	-410.8572692871095	1510.326782226563	1040.877075195313	-458.9515380859376	1695.117553710938	877.6721191406252	-420.9237670898439	1638.820922851563	855.290466308594	-469.0351867675782	1745.633422851563	811.056335449219	-425.3550109863282	1659.1611328125	783.3295898437502	-467.8237304687501	1363.715698242188	1229.747436523438	-154.8788146972657	1392.427368164063	1360.9609375	-181.9190521240235	1433.337524414063	1373.130004882813	-74.2098846435547	1486.245971679688	1367.946166992188	-48.61957931518556	1421.074584960938	1058.878173828125	-8.306066513061525	1407.529418945313	1046.868408203125	-85.0935745239258	1392.758911132813	1041.70458984375	-41.48497772216798	1486.804077148438	815.4936523437502	5.971075534820558	1408.418579101563	816.096130371094	-0.3242478072643281	1490.115112304688	728.4047241210939	16.0409164428711	1392.07568359375	746.3471679687501	-1.282764315605164	
144	1.43	1606.443359375	946.6429443359377	-334.1442565917969	1414.690185546875	943.0501098632815	-269.9712524414063	1422.137817382813	946.586853027344	-157.3861846923828	1613.477294921875	943.2512817382815	-111.9900665283203	1524.19482421875	861.3182373046877	-394.451873779297	1478.664184570313	449.2611389160157	-307.5888977050782	1445.884155273438	400.731170654297	-310.2398071289063	1503.168334960938	386.7675781250001	-253.1430053710938	1388.052490234375	63.9499855041504	-271.4693603515626	1336.578369140625	21.00811004638672	-237.6776885986329	1524.577392578125	17.69978141784668	-185.7260284423828	1536.951293945313	31.22160911560059	-241.1301574707032	1493.796875	14.94611263275147	-298.8063354492188	1535.10107421875	854.8474121093752	-44.14451217651368	1713.325073242188	486.1821899414064	-92.99935150146486	1689.518188476563	427.0654296875001	-93.89328002929689	1756.481689453125	416.904022216797	-128.873779296875	1677.206176757813	78.8046340942383	-106.7541580200196	1646.074584960938	37.73590850830079	-158.8429870605469	1839.533203125	47.08183288574219	-151.7872314453125	1824.7490234375	51.78606414794923	-102.1807327270508	1781.297729492188	29.06553077697755	-67.41141510009767	1452.360229492188	1430.650024414063	-223.6457519531251	1382.85009765625	1191.218505859375	-236.4399566650391	1602.696044921875	1128.812744140625	-231.430404663086	1573.393920898438	1344.59619140625	-230.0712432861329	1381.570922851563	1229.536254882813	-315.9148254394532	1408.281494140625	1360.710815429688	-313.0671081542969	1455.021118164063	1371.483154296875	-393.4604797363282	1496.450073242188	1371.14794921875	-410.5545654296876	1557.185546875	1066.69921875	-480.3639221191407	1517.638671875	1044.590209960938	-411.8318481445314	1524.629028320313	1038.785888671875	-459.842742919922	1712.286499023438	879.0422973632815	-420.0896301269532	1656.6943359375	855.2412719726565	-468.267059326172	1764.278076171875	813.539245605469	-423.8884887695314	1678.533081054688	783.721130371094	-466.5462951660157	1375.691040039063	1227.75439453125	-155.0331268310547	1404.39404296875	1358.958129882813	-182.150634765625	1445.56201171875	1370.837768554688	-74.37115478515626	1498.194946289063	1365.818725585938	-48.82716369628908	1431.334350585938	1057.168579101563	-8.833530426025392	1417.883911132813	1045.27783203125	-85.64672088623048	1403.094604492188	1040.255859375	-42.08464431762696	1494.642456054688	813.2626953125002	5.91958236694336	1416.293090820313	814.6873779296877	-0.8207220435142519	1497.059692382813	726.1947631835939	16.09936714172364	1399.147094726563	745.1644287109376	-1.720937728881836	
